# xmcd
#
# Track frame offsets: 
#        183
#        11600
#        23880
#        34870
#        49028
#        62700
#        76170
#        88375
#        101175
#        113395
#        125633
#        137355
#        151593
#        162693
#        175585
#        186138
#        201538
#        212105
#        230030
#        243483
#        254568
#        268030
#        282095
#        295843
#
# Disc length: 4297 seconds
#
# Revision: 3
# Processed by: cddbd v1.5.2PL0 Copyright (c) Steve Scherf et al.
# Submitted via: ExactAudioCopyFreeDBPlugin 1.0
#
DISCID=5b10c718
DTITLE=Smokey Robinson - Smokey Robinson and The Miracles:  The 35th A
DTITLE=nniversary Collection [box set]
DYEAR=1994
DGENRE=Soul
TTITLE0=(Come 'Round Here) I'm the One You Need
TTITLE1=My Business, Your Pleasure
TTITLE2=Save Me
TTITLE3=It's a Good Feeling
TTITLE4=The Love I Saw in You Was Just a Mirage
TTITLE5=Come Spy with Me
TTITLE6=My Love for You
TTITLE7=More Love
TTITLE8=After You Put Back the Pieces (I'll Still Have a Broken Heart)
TTITLE9=I Second That Emotion
TTITLE10=You Must Be Love
TTITLE11=I Care About Detroit
TTITLE12=If You Can Want
TTITLE13=When the Words from Your Heart Get Caught Up in Your Throat
TTITLE14=Yester Love
TTITLE15=You Only Build Me Up to Tear Me Down
TTITLE16=Special Occasion
TTITLE17=Baby, Baby Don't Cry
TTITLE18=Doggone Right
TTITLE19=The Composer
TTITLE20=Here I Go Again
TTITLE21=Once I Got to Know You (Couldn't Help But Love You)
TTITLE22=Abraham, Martin and John
TTITLE23=What Love Has Joined Together
EXTD=
EXTT0=
EXTT1=
EXTT2=
EXTT3=
EXTT4=
EXTT5=
EXTT6=
EXTT7=
EXTT8=
EXTT9=
EXTT10=
EXTT11=
EXTT12=
EXTT13=
EXTT14=
EXTT15=
EXTT16=
EXTT17=
EXTT18=
EXTT19=
EXTT20=
EXTT21=
EXTT22=
EXTT23=
PLAYORDER=
